# xmcd CD database file
#
# Track frame offsets:
#	150
#	14110
#	31473
#	45459
#	61070
#	76525
#	93028
#	108769
#	131321
#	143782
#	157905
#	172613
#	187021
#	198712
#	216093
#	229791
#
# Disc length: 3264 seconds
#
# Revision: 1
# Processed by: cddbd v1.5.1PL0 Copyright (c) Steve Scherf et al.
# Submitted via: CDex 1.50
#
DISCID=c10cbe10
DTITLE=Scott Joplin - The Entertainer
DYEAR=2004
DGENRE=Jazz
TTITLE0=The Entertainer
TTITLE1=Areal Slow Rag
TTITLE2=Maple Leaf Rag
TTITLE3=Heliotope Bouquet
TTITLE4=Lily Queen
TTITLE5=Paragon Rag
TTITLE6=Scott Joplin's New Rag
TTITLE7=Pineapple Rag
TTITLE8=Something doing
TTITLE9=Sun Flower Slow Rag
TTITLE10=Cleopha
TTITLE11=Country Club
TTITLE12=Stoptime Rag
TTITLE13=The Chrisanthenum
TTITLE14=Original Rags
TTITLE15=Leola
EXTD=YEAR: 2004
EXTT0=
EXTT1=
EXTT2=
EXTT3=
EXTT4=
EXTT5=
EXTT6=
EXTT7=
EXTT8=
EXTT9=
EXTT10=
EXTT11=
EXTT12=
EXTT13=
EXTT14=
EXTT15=
PLAYORDER=
